<svg id="Layer_1" xmlns="http://www.w3.org/2000/svg" xmlns:xlink="http://www.w3.org/1999/xlink" viewBox="0 0 512 512"><style>.st0{clip-path:url(#SVGID_2_)}.st1{clip-path:url(#SVGID_4_);enable-background:new}.st2{clip-path:url(#SVGID_6_)}.st3,.st4,.st5,.st6,.st7{clip-path:url(#SVGID_8_);fill:#fffdf8}.st4,.st5,.st6,.st7{fill:none;stroke:#e9e8e9;stroke-width:3.8905;stroke-linecap:square;stroke-miterlimit:10}.st5,.st6,.st7{stroke:#cce2f5;stroke-width:3.3347;stroke-dasharray:5.5578,11.1157}.st6,.st7{stroke-width:2.2231}.st7{stroke-width:1.1116}.st8{clip-path:url(#SVGID_10_)}.st9{clip-path:url(#SVGID_12_);fill:#f79966}.st10{clip-path:url(#SVGID_14_)}.st11{clip-path:url(#SVGID_16_);fill:#f79966}.st12{clip-path:url(#SVGID_18_)}.st13{clip-path:url(#SVGID_20_);fill:#f79966}.st14{clip-path:url(#SVGID_22_)}.st15{clip-path:url(#SVGID_24_);fill:#f79966}.st16{clip-path:url(#SVGID_26_)}.st17{clip-path:url(#SVGID_28_);fill:#f79966}.st18{clip-path:url(#SVGID_30_)}.st19{clip-path:url(#SVGID_32_);fill:#f79966}.st20{clip-path:url(#SVGID_34_)}.st21{clip-path:url(#SVGID_36_);fill:#f79966}.st22{clip-path:url(#SVGID_38_)}.st23{clip-path:url(#SVGID_40_);fill:#f79966}.st24{clip-path:url(#SVGID_42_)}.st25{clip-path:url(#SVGID_44_);fill:#fff6f1}.st26{clip-path:url(#SVGID_46_)}.st27{clip-path:url(#SVGID_48_);fill:#fff6f1}.st28{clip-path:url(#SVGID_50_)}.st29{clip-path:url(#SVGID_52_);fill:#fff6f1}.st30{clip-path:url(#SVGID_54_)}.st31{clip-path:url(#SVGID_56_);fill:#fff6f1}.st32{clip-path:url(#SVGID_58_)}.st33{clip-path:url(#SVGID_60_);fill:#fff6f1}</style><defs><path id="SVGID_1_" d="M123.6 53.8L23.7 512h464.6L385.7 53.4z"/></defs><clipPath id="SVGID_2_"><use xlink:href="#SVGID_1_" overflow="visible"/></clipPath><g class="st0"><defs><path id="SVGID_3_" d="M-144.3-813.7H656V680.2h-800.3z"/></defs><clipPath id="SVGID_4_"><use xlink:href="#SVGID_3_" overflow="visible"/></clipPath><g class="st1"><defs><path id="SVGID_5_" d="M15.3 43.4h481.9v471.9H15.3z"/></defs><clipPath id="SVGID_6_"><use xlink:href="#SVGID_5_" overflow="visible"/></clipPath><g class="st2"><defs><path id="SVGID_7_" d="M23.6 53.4h465.2v459.1H23.6z"/></defs><clipPath id="SVGID_8_"><use xlink:href="#SVGID_7_" overflow="visible"/></clipPath><path class="st3" d="M21 50.6h470.1v464.2H21z"/><path class="st4" d="M35 477.7h442.4"/><path class="st5" d="M35 171.7h442.4"/><path class="st6" d="M35 187.9h442.4M35 155.6h442.4"/><path class="st7" d="M35 209h442.4M35 142.3h442.4"/><path class="st4" d="M35 63.1h442.4"/></g></g></g><defs><path id="SVGID_9_" d="M222.6 382.4h9.4v96.2h-9.4z"/></defs><clipPath id="SVGID_10_"><use xlink:href="#SVGID_9_" overflow="visible"/></clipPath><g class="st8"><defs><path id="SVGID_11_" d="M-144.3-813.7H656V680.2h-800.3z"/></defs><clipPath id="SVGID_12_"><use xlink:href="#SVGID_11_" overflow="visible"/></clipPath><path class="st9" d="M219.8 379.6h15v101.7h-15z"/></g><defs><path id="SVGID_13_" d="M246.8 375.2l4.7 7.7h-22.3l4.7-7.7z"/></defs><clipPath id="SVGID_14_"><use xlink:href="#SVGID_13_" overflow="visible"/></clipPath><g class="st10"><defs><path id="SVGID_15_" d="M-144.3-813.7H656V680.2h-800.3z"/></defs><clipPath id="SVGID_16_"><use xlink:href="#SVGID_15_" overflow="visible"/></clipPath><path class="st11" d="M226.5 372.4h27.8v13.3h-27.8z"/></g><defs><path id="SVGID_17_" d="M275.7 375.2l4.7 7.7h-22.3l4.7-7.7z"/></defs><clipPath id="SVGID_18_"><use xlink:href="#SVGID_17_" overflow="visible"/></clipPath><g class="st12"><defs><path id="SVGID_19_" d="M-144.3-813.7H656V680.2h-800.3z"/></defs><clipPath id="SVGID_20_"><use xlink:href="#SVGID_19_" overflow="visible"/></clipPath><path class="st13" d="M255.4 372.4h27.8v13.3h-27.8z"/></g><defs><path id="SVGID_21_" d="M250.4 382.4h9.4v96.2h-9.4z"/></defs><clipPath id="SVGID_22_"><use xlink:href="#SVGID_21_" overflow="visible"/></clipPath><g class="st14"><defs><path id="SVGID_23_" d="M-144.3-813.7H656V680.2h-800.3z"/></defs><clipPath id="SVGID_24_"><use xlink:href="#SVGID_23_" overflow="visible"/></clipPath><path class="st15" d="M247.6 379.6h15v101.7h-15z"/></g><g><defs><path id="SVGID_25_" d="M278.1 382.4h9.4v96.2h-9.4z"/></defs><clipPath id="SVGID_26_"><use xlink:href="#SVGID_25_" overflow="visible"/></clipPath><g class="st16"><defs><path id="SVGID_27_" d="M-144.3-813.7H656V680.2h-800.3z"/></defs><clipPath id="SVGID_28_"><use xlink:href="#SVGID_27_" overflow="visible"/></clipPath><path class="st17" d="M275.4 379.6h15v101.7h-15z"/></g></g><g><defs><path id="SVGID_29_" d="M234.8 6.7h5.9v60h-5.9z"/></defs><clipPath id="SVGID_30_"><use xlink:href="#SVGID_29_" overflow="visible"/></clipPath><g class="st18"><defs><path id="SVGID_31_" d="M-144.3-813.7H656V680.2h-800.3z"/></defs><clipPath id="SVGID_32_"><use xlink:href="#SVGID_31_" overflow="visible"/></clipPath><path class="st19" d="M232 3.9h11.5v65.5H232z"/></g></g><g><defs><path id="SVGID_33_" d="M252 6.7h5.9v60H252z"/></defs><clipPath id="SVGID_34_"><use xlink:href="#SVGID_33_" overflow="visible"/></clipPath><g class="st20"><defs><path id="SVGID_35_" d="M-144.3-813.7H656V680.2h-800.3z"/></defs><clipPath id="SVGID_36_"><use xlink:href="#SVGID_35_" overflow="visible"/></clipPath><path class="st21" d="M249.2 3.9h11.5v65.5h-11.5z"/></g></g><g><defs><path id="SVGID_37_" d="M269.2 6.7h5.9v60h-5.9z"/></defs><clipPath id="SVGID_38_"><use xlink:href="#SVGID_37_" overflow="visible"/></clipPath><g class="st22"><defs><path id="SVGID_39_" d="M-144.3-813.7H656V680.2h-800.3z"/></defs><clipPath id="SVGID_40_"><use xlink:href="#SVGID_39_" overflow="visible"/></clipPath><path class="st23" d="M266.5 3.9H278v65.5h-11.5z"/></g></g><g><defs><path id="SVGID_41_" d="M234.8 4.4h5.9v48.7h-5.9z"/></defs><clipPath id="SVGID_42_"><use xlink:href="#SVGID_41_" overflow="visible"/></clipPath><g class="st24"><defs><path id="SVGID_43_" d="M-144.3-813.7H656V680.2h-800.3z"/></defs><clipPath id="SVGID_44_"><use xlink:href="#SVGID_43_" overflow="visible"/></clipPath><path class="st25" d="M232 1.7h11.5V56H232z"/></g></g><g><defs><path id="SVGID_45_" d="M249.9 0l2.9 4.9H239l2.8-4.9z"/></defs><clipPath id="SVGID_46_"><use xlink:href="#SVGID_45_" overflow="visible"/></clipPath><g class="st26"><defs><path id="SVGID_47_" d="M-144.3-813.7H656V680.2h-800.3z"/></defs><clipPath id="SVGID_48_"><use xlink:href="#SVGID_47_" overflow="visible"/></clipPath><path class="st27" d="M236.2-2.8h19.4V7.6h-19.4z"/></g></g><g><defs><path id="SVGID_49_" d="M268 0l2.9 4.9H257l2.9-4.9z"/></defs><clipPath id="SVGID_50_"><use xlink:href="#SVGID_49_" overflow="visible"/></clipPath><g class="st28"><defs><path id="SVGID_51_" d="M-144.3-813.7H656V680.2h-800.3z"/></defs><clipPath id="SVGID_52_"><use xlink:href="#SVGID_51_" overflow="visible"/></clipPath><path class="st29" d="M254.2-2.8h19.4V7.6h-19.4z"/></g></g><g><defs><path id="SVGID_53_" d="M252 4.4h5.9v48.7H252z"/></defs><clipPath id="SVGID_54_"><use xlink:href="#SVGID_53_" overflow="visible"/></clipPath><g class="st30"><defs><path id="SVGID_55_" d="M-144.3-813.7H656V680.2h-800.3z"/></defs><clipPath id="SVGID_56_"><use xlink:href="#SVGID_55_" overflow="visible"/></clipPath><path class="st31" d="M249.2 1.7h11.5V56h-11.5z"/></g></g><g><defs><path id="SVGID_57_" d="M269.2 4.4h5.9v48.7h-5.9z"/></defs><clipPath id="SVGID_58_"><use xlink:href="#SVGID_57_" overflow="visible"/></clipPath><g class="st32"><defs><path id="SVGID_59_" d="M-144.3-813.7H656V680.2h-800.3z"/></defs><clipPath id="SVGID_60_"><use xlink:href="#SVGID_59_" overflow="visible"/></clipPath><path class="st33" d="M266.5 1.7H278V56h-11.5z"/></g></g></svg>